<svg viewBox="0 0 36 36" fill="none" xmlns="http://www.w3.org/2000/svg">
  <g clipPath="url(#clip0)">
    <path
      d="M32.8309 20.425C32.1419 23.666 23.6209 26.646 15.5169 24.924C7.41289 23.202 0.840889 17.013 1.52989 13.772C2.21889 10.531 10.1169 10.485 18.2199 12.208C26.3229 13.931 33.5199 17.184 32.8309 20.425Z"
      fill="#FFD983" />
    <path d="M27 36L25 22L8 17L0 36H27Z" fill="#FFD983" />
    <path
      d="M34.1093 19.2213C34.9769 15.1394 28.2354 10.2479 19.0517 8.29588C9.86805 6.34383 1.71986 8.07039 0.852231 12.1523C-0.0153979 16.2341 6.72609 21.1256 15.9098 23.0777C25.0934 25.0297 33.2416 23.3031 34.1093 19.2213Z"
      fill="#67757F" />
    <path d="M0.414062 10.977L0.828063 13.292L33.6941 20.278L35.1061 18.152L0.414062 10.977Z" fill="#67757F" />
    <path
      d="M35.6195 16.9294C36.5381 12.6077 29.4001 7.42867 19.6762 5.36179C9.95228 3.29492 1.32482 5.12284 0.406213 9.44456C-0.512398 13.7663 6.62569 18.9453 16.3496 21.0122C26.0735 23.079 34.7009 21.2511 35.6195 16.9294Z"
      fill="#9AAAB4" />
    <path
      d="M33.1009 14.3504C33.7899 11.1091 27.7794 7.08527 19.6762 5.36287C11.5729 3.64047 4.44546 4.87178 3.7565 8.11308C3.06754 11.3544 9.07801 15.3782 17.1812 17.1006C25.2845 18.823 32.412 17.5917 33.1009 14.3504Z"
      fill="#CCD6DD" />
    <path
      d="M27.6471 11.146C27.9916 9.52533 24.3295 7.37377 19.4675 6.34033C14.6056 5.30689 10.385 5.78292 10.0405 7.40357C9.696 9.02422 13.3581 11.1758 18.2201 12.2092C23.082 13.2427 27.3027 12.7666 27.6471 11.146Z"
      fill="#E1E8ED" />
    <path
      d="M10.0411 7.402C10.3851 5.781 13.0371 2.927 19.8841 4.382C26.7311 5.837 27.9921 9.523 27.6481 11.144C27.3041 12.765 23.0831 13.241 18.2211 12.207C13.3591 11.173 9.69606 9.023 10.0411 7.402Z"
      fill="#5DADEC" />
    <path
      d="M16.7649 20.055C17.3172 20.055 17.7649 19.6073 17.7649 19.055C17.7649 18.5027 17.3172 18.055 16.7649 18.055C16.2126 18.055 15.7649 18.5027 15.7649 19.055C15.7649 19.6073 16.2126 20.055 16.7649 20.055Z"
      fill="#8CCAF7" />
    <path
      d="M24.7981 20.74C25.3504 20.74 25.7981 20.2923 25.7981 19.74C25.7981 19.1877 25.3504 18.74 24.7981 18.74C24.2458 18.74 23.7981 19.1877 23.7981 19.74C23.7981 20.2923 24.2458 20.74 24.7981 20.74Z"
      fill="#8CCAF7" />
    <path
      d="M32.269 19.261C32.8213 19.261 33.269 18.8133 33.269 18.261C33.269 17.7087 32.8213 17.261 32.269 17.261C31.7168 17.261 31.269 17.7087 31.269 18.261C31.269 18.8133 31.7168 19.261 32.269 19.261Z"
      fill="#8CCAF7" />
    <path
      d="M34.9584 14.6977C35.1328 14.4837 34.9273 14.0273 34.4992 13.6783C34.0712 13.3293 33.5827 13.2199 33.4082 13.434C33.2337 13.648 33.4393 14.1044 33.8674 14.4534C34.2954 14.8024 34.7839 14.9118 34.9584 14.6977Z"
      fill="#8CCAF7" />
    <path
      d="M2.93336 7.87951C3.46635 7.73481 3.83978 7.40148 3.76744 7.13498C3.69509 6.86849 3.20436 6.76974 2.67137 6.91444C2.13838 7.05913 1.76495 7.39246 1.83729 7.65896C1.90964 7.92545 2.40036 8.0242 2.93336 7.87951Z"
      fill="#8CCAF7" />
    <path
      d="M2.92407 13.023C3.47636 13.023 3.92407 12.5753 3.92407 12.023C3.92407 11.4707 3.47636 11.023 2.92407 11.023C2.37179 11.023 1.92407 11.4707 1.92407 12.023C1.92407 12.5753 2.37179 13.023 2.92407 13.023Z"
      fill="#8CCAF7" />
    <path
      d="M9.14795 17.413C9.70023 17.413 10.1479 16.9653 10.1479 16.413C10.1479 15.8607 9.70023 15.413 9.14795 15.413C8.59566 15.413 8.14795 15.8607 8.14795 16.413C8.14795 16.9653 8.59566 17.413 9.14795 17.413Z"
      fill="#8CCAF7" />
    <path
      d="M24.4635 6.89052C24.6357 6.0802 22.5857 4.95787 19.8846 4.38374C17.1835 3.80961 14.8542 4.00108 14.682 4.8114C14.5097 5.62173 16.5598 6.74405 19.2609 7.31818C21.9619 7.89232 24.2912 7.70084 24.4635 6.89052Z"
      fill="#8CCAF7" />
  </g>
  <defs>
    <clipPath id="clip0">
      <rect width="36" height="36" fill="white" />
    </clipPath>
  </defs>
</svg>